<svg width="400" height="1089" viewBox="0 0 400 1089" fill="none" xmlns="http://www.w3.org/2000/svg">
<rect x="112" y="9" width="190" height="1077" rx="16" fill="url(#paint0_linear_1847_10068)"/>
<g filter="url(#filter0_d_1847_10068)">
<path d="M232.959 18.4878C236.697 16.3295 241.303 16.3295 245.041 18.4878L323.892 64.0122C327.63 66.1705 329.933 70.1591 329.933 74.4756V165.524C329.933 169.841 327.63 173.83 323.892 175.988L245.041 221.512C241.303 223.67 236.697 223.67 232.959 221.512L154.108 175.988C150.37 173.83 148.067 169.841 148.067 165.524V74.4756C148.067 70.1591 150.37 66.1705 154.108 64.0122L232.959 18.4878Z" fill="#F9FCFF"/>
</g>
<g filter="url(#filter1_d_1847_10068)">
<path d="M147.419 528.488C143.681 526.33 139.075 526.33 135.337 528.488L56.4863 574.012C52.7481 576.17 50.4453 580.159 50.4453 584.476V675.524C50.4453 679.841 52.7481 683.83 56.4863 685.988L135.337 731.512C139.075 733.67 143.681 733.67 147.419 731.512L226.27 685.988C230.008 683.83 232.311 679.841 232.311 675.524V584.476C232.311 580.159 230.008 576.17 226.27 574.012L147.419 528.488Z" fill="#F9FCFF"/>
</g>
<g filter="url(#filter2_d_1847_10068)">
<path d="M134.959 187.488C138.697 185.33 143.303 185.33 147.041 187.488L225.892 233.012C229.63 235.17 231.933 239.159 231.933 243.476V334.524C231.933 338.841 229.63 342.83 225.892 344.988L147.041 390.512C143.303 392.67 138.697 392.67 134.959 390.512L56.1084 344.988C52.3702 342.83 50.0673 338.841 50.0673 334.524V243.476C50.0673 239.159 52.3702 235.17 56.1084 233.012L134.959 187.488Z" fill="#F9FCFF"/>
</g>
<g filter="url(#filter3_d_1847_10068)">
<path d="M256.041 697.488C252.303 695.33 247.697 695.33 243.959 697.488L165.108 743.012C161.37 745.17 159.067 749.159 159.067 753.476V844.524C159.067 848.841 161.37 852.83 165.108 854.988L243.959 900.512C247.697 902.67 252.303 902.67 256.041 900.512L334.892 854.988C338.63 852.83 340.933 848.841 340.933 844.524V753.476C340.933 749.159 338.63 745.17 334.892 743.012L256.041 697.488Z" fill="#F9FCFF"/>
</g>
<path d="M244.541 385.488C240.803 383.33 236.197 383.33 232.459 385.488L177.424 417.262C173.686 419.42 171.383 423.409 171.383 427.726V491.274C171.383 495.591 173.686 499.58 177.424 501.738L232.459 533.512C236.197 535.67 240.803 535.67 244.541 533.512L299.576 501.738C303.314 499.58 305.617 495.591 305.617 491.274V427.726C305.617 423.409 303.314 419.42 299.576 417.262L244.541 385.488Z" fill="#ECF4FF"/>
<defs>
<linearGradient id="paint0_linear_1847_10068" x1="207" y1="9" x2="207" y2="1086" gradientUnits="userSpaceOnUse">
<stop stop-color="#313CFB"/>
<stop offset="1" stop-color="#286FF"/>
</linearGradient>
</defs>
</svg>